# xmcd CD database file
#
# Track frame offsets:
#	150
#	13150
#	27640
#	36820
#	51750
#	68632
#	79622
#	89555
#	111400
#	122642
#	130587
#	158737
#	170387
#	178635
#	192205
#	206517
#	217160
#
# Disc length: 3116 seconds
#
# Revision: 2
# Processed by: cddbd v1.5.2PL0 Copyright (c) Steve Scherf et al.
# Submitted via: CDex 1.70beta2
#
DISCID=ec0c2a11
DTITLE=Dubliners - The best of the original Dubliners CD3
DYEAR=2003
DGENRE=Irish Folk
TTITLE0=Dirty Old Town
TTITLE1=Whiskey In The Jar (Live)
TTITLE2=The Old Triangle
TTITLE3=The Galway Races
TTITLE4=Peggy Gordon (Live)
TTITLE5=The Irish Navy
TTITLE6=Net Hauling Song
TTITLE7=The Battle Of The Somme
TTITLE8=Smith Of Bristol
TTITLE9=Tibby Dunban
TTITLE10=The Leavin' Of Liverpool (Live)
TTITLE11=The Beggar Man
TTITLE12=Rattling Roaring Willie
TTITLE13=School Days Over
TTITLE14=Louse House In Kilkenny
TTITLE15=Mrs McGrath
TTITLE16=Seven Drunken Nights (Live)
EXTD=YEAR: 2003
EXTT0=
EXTT1=
EXTT2=
EXTT3=
EXTT4=
EXTT5=
EXTT6=
EXTT7=
EXTT8=
EXTT9=
EXTT10=
EXTT11=
EXTT12=
EXTT13=
EXTT14=
EXTT15=
EXTT16=
PLAYORDER=
